{"title":"Bad Teacher 2011 TS XViD DTRG","uid":6525754,"size":1012509457,"categoryP":"video","categoryS":"movies","magnet":"?xt=urn:btih:66f7a50b392f6403e7123750561175c6c1481d21&amp;dn=Bad+Teacher+2011+TS+XViD+DTRG&amp;tr=udp%3A%2F%2Ftracker.openbittorrent.com%3A80&amp;tr=udp%3A%2F%2Fopen.demonii.com%3A1337&amp;tr=udp%3A%2F%2Ftracker.coppersurfer.tk%3A6969&amp;tr=udp%3A%2F%2Fexodus.desync.com%3A6969","seeders":6,"leechers":1,"uploader":"SAFCukO09","files":4,"time":1310153077,"description":"Format : AVI\nFormat/Info : Audio Video Interleave\nFile size : 960 MiB\nDuration : 1h 28mn\nOverall bit rate : 1 522 Kbps\nWriting application : VirtualDubMod 1.5.10.2 (build 2540/release)\nWriting library : VirtualDub build 32842/release\n\nVideo\nID : 0\nFormat : MPEG-4 Visual\nFormat profile : Advanced Simple@L5\nFormat settings, BVOP : 2\nFormat settings, QPel : No\nFormat settings, GMC : No warppoints\nFormat settings, Matrix : Default (H.263)\nMuxing mode : Packed bitstream\nCodec ID : XVID\nCodec ID/Hint : XviD\nDuration : 1h 28mn\nBit rate : 1 384 Kbps\nWidth : 672 pixels\nHeight : 358 pixels\nDisplay aspect ratio : 1.877\nFrame rate : 25.000 fps\nColor space : YUV\nChroma subsampling : 4:2:0\nBit depth : 8 bits\nScan type : Progressive\nCompression mode : Lossy\nBits/(Pixel*Frame) : 0.230\nStream size : 873 MiB (91%)\nWriting library : XviD 64\n\nAudio\nID : 1\nFormat : MPEG Audio\nFormat version : Version 1\nFormat profile : Layer 3\nMode : Joint stereo\nMode extension : MS Stereo\nCodec ID : 55\nCodec ID/Hint : MP3\nDuration : 1h 28mn\nBit rate mode : Constant\nBit rate : 128 Kbps\nChannel(s) : 2 channels\nSampling rate : 44.1 KHz\nCompression mode : Lossy\nStream size : 80.8 MiB (8%)\nAlignment : Split accross interleaves\nInterleave, duration : 40 ms (1.00 video frame)\nInterleave, preload duration : 500 ms\nWriting library : LAME3.98r\nEncoding settings : -m j -V 4 -q 2 -lowpass 17 -b 128\n\n\n\n\n\n &lt;a href=&quot;\nhttp://www.imdb.com/title/tt1284575/&quot; rel=&quot;nofollow&quot; target=&quot;_NEW&quot;&gt;\nhttp://www.imdb.com/title/tt1284575/&lt;/a&gt;\n\n\n\n\n89524873606771859129.png\n\n\nUsers: (5,569 votes) 62 reviews | Critics: 140 reviews Metascore: 47/100 (based on 38 reviews from Metacritic.com)\n\n\nA comedy centered around a foul-mouthed, junior high teacher who, after being dumped by her sugar daddy, begins to woo a colleague -- a move that pits her against a well-loved teacher.\n\nDirector: Jake Kasdan\nWriters: Gene Stupnitsky, Lee Eisenberg\nStars: Cameron Diaz, Jason Segel and Justin Timberlake\n\n\n\n\n95521316153253938506.png\n\n\n\n\n37687703163110297221.png\n\n23061276723342129660.png\n\n86266814956378202548.png\n\n59916824470505846846.png\n\n\n\n\nSource Used\n\n\n\nVIDEO: .............. Ochen.plohaya.ychilka.D.2011.TS..avi .....IMAGiNE ...... Thanks\n\nAUDIO: .............. IMAGiNE ...................................................Thanks\n\nSample included so check it out as the source has a scroll/flicker so dont be moaning later/.........Usual filters just done what i can ..so\n\n\nEnjoy\n\n\n\n\n\nGreetz to IMAGiNE,Flawl3ss,DiLLoN,BDK,NOiR,TOXiC,THC,Ez,Rx,Boobyblue,TaRiQ786,BHRG\n","torrent":{"xt":"urn:btih:66f7a50b392f6403e7123750561175c6c1481d21","amp;dn":"Bad+Teacher+2011+TS+XViD+DTRG","amp;tr":["udp%3A%2F%2Ftracker.openbittorrent.com%3A80","udp%3A%2F%2Fopen.demonii.com%3A1337","udp%3A%2F%2Ftracker.coppersurfer.tk%3A6969","udp%3A%2F%2Fexodus.desync.com%3A6969"],"infoHash":"66f7a50b392f6403e7123750561175c6c1481d21","infoHashBuffer":{"type":"Buffer","data":[102,247,165,11,57,47,100,3,231,18,55,80,86,17,117,198,193,72,29,33]},"announce":[],"urlList":[]}}